<!DOCTYPE svg PUBLIC "-//W3C//DTD SVG 1.1//EN" "http://www.w3.org/Graphics/SVG/1.1/DTD/svg11.dtd">
<!-- Uploaded to: SVG Repo, www.svgrepo.com, Transformed by: SVG Repo Mixer Tools -->
<svg width="256px" height="256px" viewBox="-6.24 -6.24 36.48 36.48" fill="none" xmlns="http://www.w3.org/2000/svg" stroke="#000000" data-darkreader-inline-stroke="" style="--darkreader-inline-stroke: #fffff8;" transform="rotate(0)">
<g id="SVGRepo_bgCarrier" stroke-width="0" transform="translate(0,0), scale(1)">
<path transform="translate(-6.24, -6.24), scale(1.14)" d="M16,31.62757402126278C19.51371453984756,31.53774726689328,22.443896856339688,29.126594334977497,24.927770738405442,26.639702851352148C27.202978028481162,24.3617314639861,28.834808967954597,21.5299488921931,29.271353300358747,18.34009765736758C29.694126437219268,15.250873236015826,28.59766718781156,12.313986580452582,27.27470365956902,9.490546807114569C25.807175853670998,6.358581120081416,24.62069690124962,2.418123858373744,21.3226479655365,1.376144902982384C18.043683080880697,0.34019532434465916,15.054828244298093,3.3530150680503983,11.857948960101425,4.619808297650126C8.800337367750037,5.831415405583105,4.956156365422855,5.832770341675669,3.1460734688961622,8.578782057123519C1.3018783303146086,11.376544229140283,2.197223500837079,15.03154193822186,2.8251958530600003,18.32307343665529C3.4430263956186935,21.561446406942135,4.361077804663611,24.763612122166755,6.680808980700101,27.106179377322345C9.185784569830282,29.635814643114944,12.441112585102742,31.718555602726298,16,31.62757402126278" fill="#d36155" strokewidth="0"/>
</g>
<g id="SVGRepo_tracerCarrier" stroke-linecap="round" stroke-linejoin="round" stroke="#CCCCCC" stroke-width="0.048"/>
<g id="SVGRepo_iconCarrier"> <path d="M4 18L20 18" stroke="#000000" stroke-width="2.4" stroke-linecap="round" data-darkreader-inline-stroke="" style="--darkreader-inline-stroke: #fffff8;"/> <path d="M4 12L20 12" stroke="#000000" stroke-width="2.4" stroke-linecap="round" data-darkreader-inline-stroke="" style="--darkreader-inline-stroke: #fffff8;"/> <path d="M4 6L20 6" stroke="#000000" stroke-width="2.4" stroke-linecap="round" data-darkreader-inline-stroke="" style="--darkreader-inline-stroke: #fffff8;"/> </g>
</svg>