<!DOCTYPE svg PUBLIC "-//W3C//DTD SVG 1.1//EN" "http://www.w3.org/Graphics/SVG/1.1/DTD/svg11.dtd">
<!-- Uploaded to: SVG Repo, www.svgrepo.com, Transformed by: SVG Repo Mixer Tools -->
<svg width="245px" height="245px" viewBox="-6.72 -6.72 37.44 37.44" fill="none" xmlns="http://www.w3.org/2000/svg" stroke="#000000" transform="matrix(-1, 0, 0, -1, 0, 0)">
<g id="SVGRepo_bgCarrier" stroke-width="0">
<path transform="translate(-6.72, -6.72), scale(1.17)" d="M16,27.95767341234854C18.421949698781003,28.10333706554771,20.881742165862583,28.051181439529515,23.066339864822016,26.995439455430237C25.416763692859213,25.859559326622918,27.53354103814895,24.134245577593955,28.721595204886576,21.809757862994942C29.935332567006725,19.43501968523543,29.91201555246546,16.689210560349984,29.692339067967755,14.031338848006875C29.461195664909432,11.234728578645703,29.066668430823633,8.376252238206884,27.42330038951417,6.101653866564879C25.70298053735094,3.7205459004418806,23.273682426690932,1.5544085433468844,20.367688684058002,1.125018385262674C17.54319796864842,0.7076711291401405,15.11112547262821,2.8701149975449787,12.443672665575079,3.888261379836006C10.022660497193076,4.81234325082657,7.227477279430811,4.97559796648823,5.418445184128455,6.8310305580725C3.5684400862931756,8.728487083047483,2.8582357169165693,11.433536649837276,2.5239345708862526,14.062434302837385C2.1935028743720726,16.660903143755423,2.2267760887294816,19.422461574538378,3.52819665313263,21.695681743776667C4.784817747829897,23.890649685493646,7.199270276423595,25.042201358599513,9.45958367717953,26.177086450213004C11.520580284010808,27.21189619039176,13.697964086067534,27.819221750372296,16,27.95767341234854" fill="#bd7e25" strokewidth="0"/>
</g>
<g id="SVGRepo_tracerCarrier" stroke-linecap="round" stroke-linejoin="round"/>
<g id="SVGRepo_iconCarrier"> <path d="M4 18L20 18" stroke="#000000" stroke-width="2.4" stroke-linecap="round"/> <path d="M4 12L20 12" stroke="#000000" stroke-width="2.4" stroke-linecap="round"/> <path d="M4 6L20 6" stroke="#000000" stroke-width="2.4" stroke-linecap="round"/> </g>
</svg>