<!DOCTYPE svg PUBLIC "-//W3C//DTD SVG 1.1//EN" "http://www.w3.org/Graphics/SVG/1.1/DTD/svg11.dtd">
<!-- Uploaded to: SVG Repo, www.svgrepo.com, Transformed by: SVG Repo Mixer Tools -->
<svg width="220px" height="220px" viewBox="-194.56 -194.56 1413.12 1413.12" xmlns="http://www.w3.org/2000/svg" fill="#000000" stroke="#000000" stroke-width="0.01024">
<g id="SVGRepo_bgCarrier" stroke-width="0">
<path transform="translate(-194.56, -194.56), scale(44.16)" d="M16,28.831264533930355C18.073691294778964,29.539488351952645,20.54524066138425,30.48110733293865,22.464406292646864,29.423477982818063C24.41117411788418,28.35063739193752,24.038077310715572,25.249181268855995,25.514778967121423,23.58778302737734C27.10331410705159,21.800563871389826,30.821637258189345,21.83475989796177,31.293097295110382,19.490549660822598C31.770481993024784,17.116880615163982,28.244415528387776,15.684720083140006,27.572006213693328,13.358765096122232C26.951783794608527,11.213331656690972,28.984087536086612,8.501891152307635,27.607913175617917,6.7429981419872735C26.236616852991894,4.990339767997903,23.415936183609265,5.3687535118158785,21.196245749418413,5.209884519484612C19.430742464735825,5.083522877575159,17.74721525841241,6.1953998242507184,16,5.912189736962318C13.806891197024598,5.556703752889591,11.993480766944037,2.574837689319734,9.92383526386864,3.3827139163249207C7.93506481765649,4.159020951552857,8.243556471294058,7.223346519579451,7.507280491574866,9.2272821927885C6.957078874906598,10.724775900948503,6.805838186101091,12.305309103654666,6.116856499935642,13.744236989648883C5.211849072560116,15.634331386105474,3.052852154453255,16.92411530183298,2.824487582966235,19.007224730934347C2.5963166061351477,21.088568216874858,3.2448453112195104,23.569111159514986,4.8990721030726405,24.852694589701876C6.635087546472037,26.19974123933313,9.293175681641243,24.89023376708186,11.361674043526296,25.631583092894488C13.152288138125423,26.273338762747624,14.1999425538888,28.216494360397746,16,28.831264533930355" fill="#c85c5c" strokewidth="0"/>
</g>
<g id="SVGRepo_tracerCarrier" stroke-linecap="round" stroke-linejoin="round"/>
<g id="SVGRepo_iconCarrier">
<path fill="#000000" d="M195.2 195.2a64 64 0 0 1 90.496 0L512 421.504 738.304 195.2a64 64 0 0 1 90.496 90.496L602.496 512 828.8 738.304a64 64 0 0 1-90.496 90.496L512 602.496 285.696 828.8a64 64 0 0 1-90.496-90.496L421.504 512 195.2 285.696a64 64 0 0 1 0-90.496z"/>
</g>
</svg>