<!DOCTYPE svg PUBLIC "-//W3C//DTD SVG 1.1//EN" "http://www.w3.org/Graphics/SVG/1.1/DTD/svg11.dtd">
<!-- Uploaded to: SVG Repo, www.svgrepo.com, Transformed by: SVG Repo Mixer Tools -->
<svg width="245px" height="245px" viewBox="-102.4 -102.4 1228.80 1228.80" xmlns="http://www.w3.org/2000/svg" fill="#000000" stroke="#000000" stroke-width="0.01024">
<g id="SVGRepo_bgCarrier" stroke-width="0">
<path transform="translate(-102.4, -102.4), scale(38.4)" d="M16,29.730145844320454C18.91969630768108,29.74134992686971,22.25819644749858,31.119261016019784,24.57285991229748,29.339630406798463C26.901537923228144,27.54922470407015,26.351962838068623,23.927708659977498,27.203385838570384,21.116414877184486C27.922062273095076,18.743433890027166,29.105467561006055,16.582059445330128,29.18709912265173,14.103981385402527C29.280958746139078,11.254697738390712,29.478689577164683,8.089354756694398,27.706065541059303,5.8566364679997385C25.92066392060693,3.6078241031356355,22.723434533528373,3.2939245337411864,19.96676068944103,2.490453740243156C17.21564929185313,1.6886041988610694,14.35065317346771,0.22556484545577793,11.64730692160428,1.1760887281061123C8.965882164978426,2.118904791326227,7.7247151915915016,5.082319132411534,6.054475460404898,7.382153929712766C4.5288507173507675,9.482861275003213,2.5376111481201016,11.445475748460948,2.31092605219248,14.031808301413198C2.088053740427372,16.574639415699906,4.034683790024476,18.67281451496991,4.852959763421916,21.090682702960432C5.789979987465551,23.8594202253543,5.1589897415459545,27.483385960673257,7.469320085489505,29.27399704910988C9.766602029583561,31.0544950342329,13.093532554941167,29.71899252638958,16,29.730145844320454" fill="#bf7f28" strokewidth="0"/>
</g>
<g id="SVGRepo_tracerCarrier" stroke-linecap="round" stroke-linejoin="round"/>
<g id="SVGRepo_iconCarrier">
<path fill="#000000" d="M195.2 195.2a64 64 0 0 1 90.496 0L512 421.504 738.304 195.2a64 64 0 0 1 90.496 90.496L602.496 512 828.8 738.304a64 64 0 0 1-90.496 90.496L512 602.496 285.696 828.8a64 64 0 0 1-90.496-90.496L421.504 512 195.2 285.696a64 64 0 0 1 0-90.496z"/>
</g>
</svg>